<?xml version="1.0" encoding="UTF-8"?>
<svg width="59px" height="55px" viewBox="0 0 59 55" version="1.1" xmlns="http://www.w3.org/2000/svg" xmlns:xlink="http://www.w3.org/1999/xlink">
    <!-- Generator: sketchtool 53.2 (72643) - https://sketchapp.com -->
    <title>B3E9AB72-75B0-43E0-B851-6A9777CAD1F1</title>
    <desc>Created with sketchtool.</desc>
    <g id="D.-TELEVISIÓN-+-ONETV" stroke="none" stroke-width="1" fill="none" fill-rule="evenodd">
        <g id="D_02_Televisión_ONEtv_Web" transform="translate(-232.000000, -974.000000)" fill-rule="nonzero">
            <g id="CARD/te_llamamos" transform="translate(113.000000, 942.000000)">
                <g id="Group-14">
                    <g id="Group-13" transform="translate(81.142105, 32.000000)">
                        <g id="Group-11">
                            <g id="Group-15-Copy-5" transform="translate(38.066667, 0.000000)">
                                <g id="Group-2">
                                    <g id="ICON/servicios/wifi-Copy-6">
                                        <g id="ICON/servicios/wifi-Copy-3">
                                            <g id="Group" transform="translate(0.048946, 0.554342)">
                                                <path d="M30.8978085,-1.55047836 L54.4392096,11.4245124 C55.396551,11.9521571 55.9911216,12.9587562 55.9911216,14.0518762 L55.9911216,39.7647594 C55.9911216,40.8578795 55.396551,41.8644786 54.4392096,42.3921233 L30.8978085,55.367114 C29.9963433,55.8639622 28.9030975,55.8639622 28.0016324,55.367114 L4.46023122,42.3921233 C3.50288982,41.8644786 2.90831928,40.8578795 2.90831928,39.7647594 L2.90831928,14.0518762 C2.90831928,12.9587562 3.50288982,11.9521571 4.46023122,11.4245124 L28.0016324,-1.55047836 C28.9030975,-2.04732651 29.9963433,-2.04732651 30.8978085,-1.55047836 Z" id="Polygon-2" fill="#00377B" transform="translate(29.449720, 26.908318) rotate(-90.000000) translate(-29.449720, -26.908318) "></path>
                                                <g id="ICON/ic-llamada-charla" transform="translate(15.739072, 12.888198)" fill="#FFFFFF" stroke="#FFFFFF" stroke-width="0.5">
                                                    <g id="Group">
                                                        <path d="M22.2677469,16.380538 C22.2812667,16.380538 22.2947865,16.380538 22.3083063,16.380538 C22.7003806,16.380538 23.0383757,16.0710185 23.0518955,15.6672975 C23.0518955,15.5730959 23.1465341,13.3660877 21.983831,11.0379631 C20.0369793,7.12186909 16.197355,6.01836495 13.3311566,5.77613234 C12.9255625,5.7492176 12.5605278,6.04527969 12.5334882,6.44900072 C12.5064486,6.85272174 12.8038843,7.21607067 13.2094784,7.2429854 C21.7810339,7.94276852 21.5782369,15.2770338 21.5647171,15.6000107 C21.5376775,16.0171891 21.8621528,16.3670806 22.2677469,16.380538 Z" id="Shape"></path>
                                                        <path d="M24.3946373,4.45278158 C19.3140911,-0.512619279 13.4456528,0.00011233177 13.2011346,0.027098206 C12.7936041,0.0675770173 12.4947485,0.431886319 12.5355015,0.836674433 C12.5762546,1.24146255 12.943032,1.53830716 13.3505624,1.51132129 C13.4048998,1.51132129 18.7978859,1.06605436 23.3622268,5.53221655 C23.3622268,5.53221655 23.3758112,5.54570949 23.3893955,5.55920242 C23.4301486,5.59968123 27.6956338,9.53961887 27.586959,15.6249335 C27.5733747,16.0297216 27.9129834,16.3670451 28.3205138,16.380538 C28.3205138,16.380538 28.3340982,16.380538 28.3340982,16.380538 C28.7416286,16.380538 29.067653,16.0567075 29.0812373,15.6519194 C29.1899121,8.95942258 24.734246,4.76311913 24.3946373,4.45278158 Z" id="Shape"></path>
                                                        <path d="M20.4767006,19.4433374 C19.9872177,18.9553669 19.3345739,18.6842723 18.6411398,18.6842723 C18.6275431,18.6842723 18.6139463,18.6842723 18.6139463,18.6842723 C17.9069155,18.697827 17.2542716,18.9824764 16.7647888,19.4840016 L16.0033709,20.2837308 C15.7994197,20.5006066 15.5138881,20.6225992 15.2147596,20.6225992 C15.2147596,20.6225992 15.2011629,20.6225992 15.2011629,20.6225992 C14.9020345,20.6225992 14.6300995,20.5141613 14.4125516,20.2972856 L9.50412599,15.4040267 C9.28657804,15.187151 9.17780407,14.9160563 9.17780407,14.6178522 C9.17780407,14.319648 9.30017479,14.0349986 9.51772274,13.8316776 L10.306334,13.0726125 C10.8094137,12.5846421 11.0949454,11.9340149 11.0949454,11.2291687 C11.1085421,10.5243226 10.8366072,9.87369538 10.3335275,9.37217023 L6.68959941,5.71239214 C5.73782714,4.75000605 4.187798,4.69578711 3.15444525,5.56329007 C1.15572348,7.27118651 0,8.84353562 0,11.9069054 C0,15.7835593 2.20267298,20.2159572 5.9009881,23.7808521 C9.43614226,27.1830903 13.6511338,29.1078625 17.5262066,29.1078625 C17.6621741,29.1078625 17.7981415,29.1078625 17.9205122,29.1078625 C20.9661835,28.9994246 22.4482289,27.8337175 23.8486938,25.9631643 C24.6101116,24.9465592 24.5013377,23.4962027 23.5903556,22.5880356 L20.4767006,19.4433374 Z M22.6657762,25.0549971 C21.4556658,26.6815651 20.3815228,27.5084039 17.8933182,27.603287 C14.3037772,27.7252796 10.3063338,25.9360548 6.94793745,22.7100281 C3.57594437,19.4704468 1.49564219,15.3226983 1.49564219,11.9069054 C1.49564219,9.38572496 2.33864046,8.22001786 4.13341097,6.70188769 C4.33736216,6.52567615 4.59570034,6.44434775 4.84044178,6.44434775 C5.12597345,6.44434775 5.41150512,6.55278562 5.62905306,6.76966136 L9.28657782,10.4429942 C9.49052901,10.6598699 9.61289973,10.9309646 9.61289973,11.2291687 C9.61289973,11.5273729 9.49052901,11.7984675 9.27298107,12.0153433 L8.48436978,12.7744084 C7.98129017,13.2623788 7.6957585,13.913006 7.6957585,14.6178521 C7.6957585,15.3226983 7.95409668,15.9733255 8.45717629,16.4748507 L13.3656017,21.3681095 C13.8686813,21.8696347 14.5213251,22.1407293 15.2283559,22.1271746 C15.9353868,22.1136199 16.5880306,21.8289705 17.0775134,21.3274453 L17.8389312,20.527716 C18.0428824,20.3108403 18.3284141,20.1888477 18.6275425,20.1888477 L18.6411393,20.1888477 C18.9402677,20.1888477 19.2122026,20.2972856 19.4297506,20.5141613 L22.5705989,23.6453048 L22.5705989,23.6453048 C22.9377111,24.0112826 22.9785013,24.6212456 22.6657762,25.0549971 Z" id="Shape"></path>
                                                    </g>
                                                </g>
                                            </g>
                                        </g>
                                    </g>
                                </g>
                            </g>
                        </g>
                    </g>
                </g>
            </g>
        </g>
    </g>
</svg>