<?xml version="1.0" encoding="UTF-8"?>
<svg width="527px" height="319px" viewBox="0 0 527 319" version="1.1" xmlns="http://www.w3.org/2000/svg" xmlns:xlink="http://www.w3.org/1999/xlink">
    <!-- Generator: Sketch 53.1 (72631) - https://sketchapp.com -->
    <title>ima-logo-tigo</title>
    <desc>Created with Sketch.</desc>
    <g id="ima-logo-tigo" stroke="none" stroke-width="1" fill="none" fill-rule="evenodd">
        <g id="ic-tigo" transform="translate(44.000000, 3.000000)" fill="#FFFFFF" fill-rule="nonzero">
            <path d="M119.435536,62.1987179 C109.001318,62.1987179 100.460829,52.9820194 100.460829,42.0245444 C100.460829,31.0530718 109.001318,22.0705129 119.435536,22.0705129 C129.8951,22.0705129 138.635945,31.0530718 138.635945,42.0245444 C138.635945,52.9820194 129.8951,62.1987179 119.435536,62.1987179 Z M295.850556,275.968544 C339.967011,275.968544 372.232958,254.359748 388.679526,228.96827 L389.788018,228.96827 L389.788018,246.3033 C389.788018,252.75786 386.856565,262.771208 383.047295,269.684687 C372.232958,288.818288 337.919605,313 299.955339,313 C262.326489,313 230.324883,293.946805 214.680069,271.155456 C210.153834,264.524008 206.949309,252.75786 206.949309,245.495553 L206.949309,228.73077 L207.94932,228.73077 C227.444551,254.631883 255.204214,275.968544 295.850556,275.968544 Z M378.270452,26.0195894 C349.688654,26.0195894 328.792338,38.9136246 318.152684,53.969732 L317.456221,53.969732 L317.456221,39.7735535 C317.456221,35.8989733 319.340694,29.8966198 321.799659,25.7905202 C328.792338,14.4766964 351.026692,0 375.71269,0 C399.999839,0 420.799797,11.3885469 430.861302,24.9722401 C433.806937,28.8786698 436,35.8989733 436,40.2267926 L436,54.173077 L435.321834,54.173077 C422.73306,38.694355 404.686019,26.0195894 378.270452,26.0195894 Z M33.4057924,40.1282051 L33.4057924,70.1744045 L80.3686635,70.1744045 L80.3686635,83.7363041 C80.3686635,90.5993505 74.0807792,99.4841835 60.2899361,99.4841835 L33.4057924,99.4841835 L33.4057924,151.437972 C33.4057924,168.710157 41.2437715,175.323237 54.7083448,175.323237 C65.5190057,175.323237 73.7957618,173.835692 79.1823411,170.716014 L80.3686635,170.716014 L80.3686635,182.400715 C80.3686635,195.978544 70.3580516,204.653846 50.639346,204.653846 C16.5622626,204.653846 0,186.349938 0,155.390872 L0,75.5707367 C0,62.5357271 2.45640018,57.6148212 9.81935034,49.238498 C14.2583717,44.0565977 20.3549945,40.1282051 25.5890645,40.1282051 L33.4057924,40.1282051 Z M138.055711,161.739716 C138.055711,175.088692 143.776705,179.323284 158.582813,179.323284 L164.75576,179.323284 L164.75576,186.492179 C164.75576,200.98447 159.00862,206.660256 144.80138,206.660256 C118.722609,206.660256 104.479263,191.981327 104.479263,164.902682 L104.479263,74.2371795 L114.076091,74.2371795 C129.073936,74.2371795 138.055711,82.2033046 138.055711,99.1367277 L138.055711,161.739716 Z M295.354838,175.051616 C295.354838,199.035562 279.109188,210.673076 245.790842,210.673076 C209.46327,210.673076 172.792627,186.754248 172.792627,141.107225 C172.792627,98.2639195 205.59024,68.2179487 252.658393,68.2179487 C280.385905,68.2179487 293.084442,83.102714 293.084442,96.9370067 L293.084442,108.527834 L288.6723,108.527834 L287.988608,108.01427 C279.78308,101.361278 264.863153,97.3178799 249.329377,97.3178799 C224.662554,97.3178799 206.857154,114.164756 206.857154,137.453301 C206.857154,173.980257 229.789019,181.670207 249.07575,181.670207 C262.412646,181.670207 263.490869,176.868749 263.490869,171.584442 L263.490869,160.967913 C263.490869,150.821946 261.553742,142.147869 261.529237,142.068008 L260.819815,138.980479 L278.36546,138.980479 C287.054965,138.980479 295.354838,146.153179 295.354838,153.754668 L295.354838,175.051616 Z" id="Combined-Shape"></path>
            <path d="M375.489063,177.607944 C352.920991,177.607944 343.110921,161.960016 343.110921,135.765712 C343.110921,114.061895 352.920991,98.3311929 372.429156,98.3311929 C394.735524,98.3311929 404.808555,114.061895 404.808555,140.457047 C404.808555,161.960016 395.180921,177.607944 375.489063,177.607944 M375.489063,69 C331.471448,69 308,100.815629 308,140.457047 C308,175.368178 331.471448,207 372.429156,207 C416.339823,207 440,175.368178 440,135.765712 C440,100.815629 416.339823,69 375.489063,69" id="Fill-9"></path>
        </g>
    </g>
</svg>