<!-- Generated by IcoMoon.io -->
<svg version="1.1" xmlns="http://www.w3.org/2000/svg" width="256" height="256" viewBox="0 0 256 256">
<title>chulo-fill</title>
<path fill="#7f9bbd" d="M177.576 89.899l-64.081 88.317c-1.138 1.569-2.958 2.494-4.891 2.494-0.043 0-0.085-0.001-0.129-0.002-1.981-0.042-3.815-1.052-4.909-2.703l-24.608-37.128c-1.844-2.783-1.084-6.533 1.698-8.377 2.782-1.843 6.533-1.084 8.378 1.699l19.794 29.865 58.964-81.266c1.96-2.701 5.741-3.301 8.441-1.342 2.702 1.96 3.304 5.739 1.343 8.442zM129.28 17.067c-61.503 0-111.359 49.859-111.359 111.359 0 61.503 49.857 111.361 111.359 111.361s111.359-49.858 111.359-111.361c0-61.501-49.858-111.359-111.359-111.359z"></path>
</svg>
