<?xml version="1.0" encoding="UTF-8"?>
<svg width="18px" height="18px" viewBox="0 0 18 18" version="1.1" xmlns="http://www.w3.org/2000/svg" xmlns:xlink="http://www.w3.org/1999/xlink">
    <!-- Generator: Sketch 53 (72520) - https://sketchapp.com -->
    <title>Group</title>
    <desc>Created with Sketch.</desc>
    <g id="Page-1" stroke="none" stroke-width="1" fill="none" fill-rule="evenodd">
        <g id="02-footer-w" transform="translate(-965.000000, -92.000000)">
            <g id="Group" transform="translate(966.000000, 93.000000)">
                <circle id="Oval-6" stroke="#AABDD4" stroke-width="0.5" fill="#F8FBFE" cx="8" cy="8" r="8"></circle>
                <path d="M4.44444444,4 C4.19866667,4 4,4.19866667 4,4.44444444 C4,8.61688889 7.38311111,12 11.5555556,12 C11.8013333,12 12,11.8013333 12,11.5555556 L12,10 C12,9.75466667 11.8013333,9.556 11.5555556,9.556 C11.0008889,9.556 10.4675556,9.46666667 9.968,9.30311111 C9.92355556,9.28888889 9.87688889,9.28177778 9.83066667,9.28177778 C9.71733333,9.28177778 9.60355556,9.32533333 9.51688889,9.412 L8.53866667,10.3911111 C7.28,9.75111111 6.25111111,8.72222222 5.61022222,7.464 L6.588,6.48311111 C6.71022222,6.36133333 6.74622222,6.18577778 6.69688889,6.032 C6.53333333,5.532 6.444,4.99866667 6.444,4.44444444 C6.444,4.19866667 6.24533333,4 6,4 L4.44444444,4 Z" id="Imported-Layers" fill="#AABDD4"></path>
            </g>
        </g>
    </g>
</svg>