<?xml version="1.0" encoding="UTF-8"?>
<svg width="8px" height="12px" viewBox="0 0 8 12" version="1.1" xmlns="http://www.w3.org/2000/svg" xmlns:xlink="http://www.w3.org/1999/xlink">
    <!-- Generator: Sketch 52.5 (67469) - http://www.bohemiancoding.com/sketch -->
    <title>Group 2</title>
    <desc>Created with Sketch.</desc>
    <g id="Page-1" stroke="none" stroke-width="1" fill="none" fill-rule="evenodd">
        <g id="Artboard" transform="translate(-299.000000, -347.000000)" fill="#FFFFFF">
            <g id="Group" transform="translate(299.000000, 347.000000)">
                <g id="Group-2">
                    <path d="M11.175339,7 C11.7325234,7 12.1842105,6.55613518 12.1842105,6 L12.1842105,6 C12.1842105,5.44771525 11.7385549,5 11.175339,5 L1.824661,5 C1.26747664,5 0.815789474,5.44386482 0.815789474,6 L0.815789474,6 C0.815789474,6.55228475 1.26144505,7 1.824661,7 L11.175339,7 Z" id="Path" transform="translate(6.500000, 6.000000) rotate(-90.000000) translate(-6.500000, -6.000000) "></path>
                    <path d="M-4.18421053,6 C-4.18421053,6.55228475 -3.73855495,7 -3.175339,7 L6.175339,7 C6.73252336,7 7.18421053,6.55613518 7.18421053,6 L7.18421053,6 C7.18421053,5.44771525 6.73855495,5 6.175339,5 L-3.175339,5 C-3.73252336,5 -4.18421053,5.44386482 -4.18421053,6 L-4.18421053,6 Z" id="Path" transform="translate(1.500000, 6.000000) rotate(-90.000000) translate(-1.500000, -6.000000) "></path>
                </g>
            </g>
        </g>
    </g>
</svg>