<?xml version="1.0" encoding="UTF-8"?>
<svg width="41px" height="52px" viewBox="0 0 41 52" version="1.1" xmlns="http://www.w3.org/2000/svg" xmlns:xlink="http://www.w3.org/1999/xlink">
    <!-- Generator: Sketch 53 (72520) - https://sketchapp.com -->
    <title>claims</title>
    <desc>Created with Sketch.</desc>
    <g id="Page-1" stroke="none" stroke-width="1" fill="none" fill-rule="evenodd">
        <g id="01-footer-w" transform="translate(-2094.000000, -43.000000)" fill="#7F9BBD" fill-rule="nonzero">
            <g id="claims" transform="translate(2094.000000, 43.000000)">
                <path d="M38.69,11.0775 C36.98375,9.65125 34.44625,9.87875 33.02,11.585 L23.36,23.17 C23.2305,23.3275 23.16225,23.527 23.1675,23.73 L23.3075,28.525 C23.32675,28.98175 23.70825,29.3405 24.165,29.33 L24.2875,29.33 L29.03,28.6125 C29.2365,28.581 29.42375,28.476 29.555,28.315 L39.25,16.7475 C40.67625,15.04125 40.44875,12.50375 38.7425,11.0775 L38.69,11.0775 Z M36.1525,17.7625 L28.435,27.0025 L24.935,27.5275 L24.83,24.0275 L32.53,14.7875 L36.1525,17.7625 Z M38.445,14 C38.515,14.63 38.326,15.26175 37.92,15.75 L37.255,16.555 L33.755,13.5625 L34.42,12.7575 C35.2495,11.77225 36.71775,11.63925 37.71,12.46 C38.14225,12.86075 38.40475,13.412 38.445,14 Z M31.655,29.9425 C31.18075,29.9425 30.7975,30.32575 30.7975,30.8 L30.7975,46.725 C30.7975,48.272 29.5445,49.525 27.9975,49.525 L4.705,49.525 C3.158,49.525 1.905,48.272 1.905,46.725 L1.905,4.725 C1.905,3.178 3.158,1.925 4.705,1.925 L28.015,1.925 C29.562,1.925 30.815,3.178 30.815,4.725 L30.815,7.1575 C30.815,7.83125 31.54475,8.25125 32.1275,7.91525 C32.39875,7.7595 32.565,7.47075 32.565,7.1575 L32.565,4.8125 C32.565,2.32575 30.55425,0.308 28.0675,0.2975 L4.705,0.2975 C2.21125,0.2975 0.19,2.31875 0.19,4.8125 L0.19,46.8125 C0.19,49.30625 2.21125,51.3275 4.705,51.3275 L28.015,51.3275 C30.50875,51.3275 32.53,49.30625 32.53,46.8125 L32.53,30.8 C32.53,30.31875 32.13625,29.932 31.655,29.9425 Z" id="Shape"></path>
                <path d="M6,39.84925 L26.895,39.84925 C27.56875,39.84925 27.98875,39.12125 27.65275,38.53675 C27.497,38.26725 27.20825,38.09925 26.895,38.09925 L6,38.09925 C5.32625,38.09925 4.90625,38.829 5.24225,39.41175 C5.398,39.683 5.68675,39.84925 6,39.84925 Z M26.895,43.5575 L6,43.5575 C5.32625,43.5575 4.90625,44.28725 5.24225,44.87 C5.398,45.14125 5.68675,45.3075 6,45.3075 L26.895,45.3075 C27.56875,45.3075 27.98875,44.57775 27.65275,43.995 C27.497,43.72375 27.20825,43.5575 26.895,43.5575 Z" id="Shape"></path>
            </g>
        </g>
    </g>
</svg>