<?xml version="1.0" encoding="UTF-8"?>
<svg width="24px" height="24px" viewBox="0 0 24 24" version="1.1" xmlns="http://www.w3.org/2000/svg" xmlns:xlink="http://www.w3.org/1999/xlink">
    <!-- Generator: Sketch 52.5 (67469) - http://www.bohemiancoding.com/sketch -->
    <title>Twitter</title>
    <desc>Created with Sketch.</desc>
    <g id="Twitter" stroke="none" stroke-width="1" fill="none" fill-rule="evenodd">
        <g id="Group-2-Copy">
            <circle id="Oval" fill-opacity="0.5" fill="#00377B" cx="12" cy="12" r="12"></circle>
            <path d="M17.1600284,8.62534269 C17.6960024,8.30422283 18.1073223,7.79612177 18.3014653,7.18969106 C17.7999454,7.48719633 17.244228,7.7030183 16.6532823,7.81934925 C16.1798289,7.31511944 15.5052642,7 14.7583073,7 C13.325172,7 12.1628303,8.16234165 12.1628303,9.59547698 C12.1628303,9.79891096 12.1858642,9.9969252 12.2303835,10.1870034 C10.0733252,10.0788021 8.16073604,9.04556646 6.88051494,7.47480834 C6.65714403,7.85806171 6.52900579,8.30422283 6.52900579,8.77980541 C6.52900579,9.68006371 6.98755489,10.4748305 7.68360495,10.9401543 C7.25834856,10.9267985 6.85786815,10.8100805 6.50810106,10.6151632 C6.50790749,10.6261963 6.50790749,10.6372293 6.50790749,10.6480688 C6.50790749,11.9056431 7.4029396,12.9545573 8.59005723,13.1928325 C8.3724932,13.2524496 8.14273474,13.2840003 7.90639516,13.2840003 C7.73877021,13.2840003 7.57637143,13.2679346 7.41803746,13.2377389 C7.74825476,14.2686518 8.70658174,15.0190928 9.84259892,15.0401911 C8.95414793,15.7364347 7.83516423,16.1512388 6.6188187,16.1512388 C6.4097714,16.1512388 6.20265974,16.1390443 6,16.114849 C7.14801804,16.8515472 8.51263231,17.2810619 9.9782861,17.2810619 C14.7523068,17.2810619 17.3630752,13.3261969 17.3630752,9.89607924 C17.3630752,9.78361954 17.3605589,9.67154696 17.3555263,9.5604422 C17.8630467,9.19460944 18.3030138,8.73760883 18.6508453,8.21711979 C18.1855215,8.42345721 17.6849694,8.56301563 17.1600284,8.62534269 Z" id="Shape" fill="#FFFFFF"></path>
        </g>
    </g>
</svg>