<?xml version="1.0" encoding="UTF-8"?>
<svg width="50px" height="55px" viewBox="0 0 50 55" version="1.1" xmlns="http://www.w3.org/2000/svg" xmlns:xlink="http://www.w3.org/1999/xlink">
    <!-- Generator: Sketch 53 (72520) - https://sketchapp.com -->
    <title>usersecurity</title>
    <desc>Created with Sketch.</desc>
    <g id="Page-1" stroke="none" stroke-width="1" fill="none" fill-rule="evenodd">
        <g id="01-footer-w" transform="translate(-1578.000000, -40.000000)" fill="#7F9BBD" fill-rule="nonzero">
            <g id="usersecurity" transform="translate(1578.000000, 40.000000)">
                <path d="M38.5178571,38.1428571 C37.4267603,40.2110386 36.1091457,42.1515254 34.5892857,43.9285714 C31.5903645,47.4789224 27.7890838,50.2640797 23.5,52.0535714 C18.6174639,49.8008394 14.2938814,46.4956466 10.8392857,42.375 C4.83928571,35.2321429 2.25,26.1607143 3.16071429,15.5892857 C6.18381172,15.5463901 9.17581058,14.9721681 12,13.8928571 C16.5467892,12.1632754 20.3398109,8.88863324 22.7142857,4.64285714 C28.4285714,15.2321429 39.2857143,16.5357143 42.8571429,16.6607143 C42.8571429,17.7142857 42.8571429,18.7678571 42.8571429,19.875 C42.8547823,20.1833707 42.9771412,20.4796081 43.1964286,20.6964286 C43.4077579,20.912988 43.6974146,21.0352875 44,21.0357143 C44.6271729,21.0261375 45.1332803,20.52003 45.1428571,19.8928571 C45.1428571,18.4285714 45.1428571,16.9285714 45.0357143,15.4285714 C44.9796288,14.8129165 44.4573751,14.3452267 43.8392857,14.3571429 L42.9821429,14.3571429 C38.7054535,14.2504599 34.5458289,12.9381974 30.9821429,10.5714286 C29.274242,9.41232521 27.7664264,7.98291601 26.5178571,6.33928571 C25.4506932,4.98672437 24.6287443,3.45765763 24.0892857,1.82142857 C23.9668161,1.38973227 23.6863056,1.01996846 23.3035714,0.785714286 C23.0596065,0.674931486 22.7796793,0.674931486 22.5357143,0.785714286 C22.0987269,1.02108479 21.771673,1.41867968 21.625,1.89285714 C21.2857143,2.76785714 20.9464286,3.39285714 20.6071429,3.98214286 C19.4969291,5.85560492 18.07117,7.52301811 16.3928571,8.91071429 C14.9388035,10.0725524 13.3198634,11.0114173 11.5892857,11.6964286 C10.158617,12.2903906 8.66776063,12.727469 7.14285714,13 C6.02085407,13.1816894 4.88658679,13.2772066 3.75,13.2857143 C3.25043085,13.3150692 2.74956915,13.3150692 2.25,13.2857143 C1.55743319,13.2822032 1.06402137,13.7216481 1,14.3035714 C-1.98214286,42.1964286 18.8214286,52.5714286 23.0357143,54.3571429 C23.1768836,54.4170188 23.3288035,54.4474028 23.4821429,54.4464286 C23.6004993,54.4645708 23.7209293,54.4645708 23.8392857,54.4464286 C30.9792087,51.4748733 36.8543749,46.0987803 40.4464286,39.25 C40.601227,38.9699277 40.6250421,38.6359553 40.511551,38.3367516 C40.39806,38.0375479 40.1587447,37.8033836 39.8571429,37.6964286 C39.3441206,37.4454705 38.7766486,37.664893 38.5178571,38.1428571 Z" id="Shape"></path>
                <path d="M47.5714286,33.5 L47.5714286,33.5 L47.2678571,33.1964286 C46.5166205,32.4807645 45.621851,31.9329464 44.6428571,31.5892857 C46.1740875,30.7243462 47.0965789,29.0790071 47.0357143,27.3214286 C46.9594986,25.4253996 45.7821879,23.7488718 44.0246232,23.0335391 C42.2670584,22.3182064 40.2536002,22.6960843 38.875,24 C37.9263835,24.8875265 37.3894852,26.1295082 37.3928571,27.4285714 C37.3961564,29.1323458 38.3083603,30.7048764 39.7857143,31.5535714 C38.7994091,31.8929348 37.897943,32.4411237 37.1428571,33.1607143 C36.0225061,34.2354219 35.2827974,35.6458833 35.0357143,37.1785714 C35.011908,37.3468779 35.0642675,37.5170461 35.1785714,37.6428571 C35.29203,37.7697329 35.4548059,37.8413544 35.625,37.8392857 C35.9087756,37.8427681 36.1521067,37.6374575 36.1964286,37.3571429 C36.4082697,36.0677051 37.0352698,34.8826748 37.9821429,33.9821429 C40.3617798,31.7145687 44.1025059,31.7145687 46.4821429,33.9821429 C47.4279651,34.8834709 48.0547668,36.068126 48.2678571,37.3571429 C48.3121791,37.6374575 48.5555101,37.8427681 48.8392857,37.8392857 C49.0094798,37.8413544 49.1722557,37.7697329 49.2857143,37.6428571 C49.3936326,37.5140091 49.4393544,37.3441852 49.4107143,37.1785714 C49.1776916,35.7965564 48.537227,34.5156272 47.5714286,33.5 L47.5714286,33.5 Z M38.6428571,27.4821429 C38.6428571,25.5096973 40.2418402,23.9107143 42.2142857,23.9107143 C44.1867312,23.9107143 45.7857143,25.5096973 45.7857143,27.4821429 C45.7857143,29.4545884 44.1867312,31.0535714 42.2142857,31.0535714 C41.2486043,31.0777347 40.3143199,30.7096898 39.6245702,30.0333986 C38.9348205,29.3571074 38.5484393,28.4302557 38.5535714,27.4642857 L38.6428571,27.4821429 Z" id="Shape"></path>
            </g>
        </g>
    </g>
</svg>